<svg width="551" height="572" viewBox="0 0 551 572" fill="none" xmlns="http://www.w3.org/2000/svg">
<ellipse cx="275.5" cy="286" rx="275.5" ry="286" fill="white"/>
<path d="M462.662 197.967C328.424 92.9834 152.579 154.224 81.4369 197.967C57.1013 227.098 71.2971 240.794 81.4369 244C252.179 126.924 406.729 195.218 462.662 244C494.063 234.106 475.746 209.189 462.662 197.967Z" fill="black" stroke="black"/>
<path d="M456.251 281.491C326.574 193.669 156.705 244.899 87.9803 281.491C64.4717 305.861 78.1851 317.318 87.9803 320C252.92 222.062 402.219 279.192 456.251 320C486.585 311.724 468.89 290.879 456.251 281.491Z" fill="black" stroke="black"/>
<path d="M435.652 355.397C338.546 286.923 208.557 322.387 155.7 348.678C137.421 366.593 147.654 375.468 155.055 377.665C282.08 306.952 394.616 352.68 435.006 384.384C458.204 378.707 445.102 362.694 435.652 355.397Z" fill="black" stroke="black"/>
<rect x="68.6685" y="223.711" width="27.0791" height="183" transform="rotate(-4.55038 68.6685 223.711)" fill="black"/>
</svg>
